<?xml version="1.0" encoding="UTF-8"?>
<svg width="24" height="24" version="1.1" viewBox="0 0 6.35 6.35" xml:space="preserve" xmlns="http://www.w3.org/2000/svg"><g fill="none" stroke="currentColor" stroke-linecap="round" stroke-linejoin="round"><path d="m1.7827 3.9893a0.40965 0.40965 0 1 1 0.57933 0.57933l-1.0611 1.0572-0.77049 0.19506 0.19311-0.77049z" stroke-width=".52917"/><g transform="matrix(.26458 0 0 .26458 .12786 .12665)" stroke-width="2"><path d="m9.5184 21h8.4816c1.1046 0 2-0.89543 2-2v-8h-16" fill="none"/><path d="m4 11-0.88-2.87a2 2 0 0 1 1.33-2.5l11.48-3.5a2 2 0 0 1 2.5 1.32l0.87 2.87-15.3 4.69z"/><path d="m6.6 4.99 3.38 4.2"/><path d="m11.86 3.38 3.38 4.2"/></g></g></svg>
